{"glyphs":{"0":{"ha":849,"x_min":0,"x_max":0,"o":"m 356 -26 b 44 361 164 -26 44 115 b 169 818 44 536 94 704 b 492 1003 249 939 363 1003 b 801 611 682 1003 801 861 b 679 161 801 436 754 275 b 356 -26 596 36 489 -26 m 369 183 b 486 308 417 183 456 225 b 554 675 528 422 554 567 b 475 793 554 753 526 793 b 358 667 426 793 390 751 b 293 299 319 561 293 413 b 369 183 293 224 321 183 "},"1":{"ha":849,"x_min":0,"x_max":0,"o":"m 365 774 l 217 774 l 276 983 l 650 983 l 494 0 l 242 0 "},"2":{"ha":849,"x_min":0,"x_max":0,"o":"m 450 210 b 551 215 508 214 542 215 l 763 215 l 728 0 l 3 0 l 417 474 b 546 697 499 568 546 635 b 440 799 546 758 504 799 b 311 642 361 799 313 742 l 76 642 b 453 1003 93 871 233 1003 b 794 704 661 1003 794 878 b 581 331 794 568 721 461 l 450 210 "},"3":{"ha":849,"x_min":0,"x_max":0,"o":"m 274 321 b 404 172 279 225 328 172 b 524 290 475 172 524 222 b 378 413 524 365 471 413 l 367 413 l 394 588 b 435 585 408 585 422 585 b 568 706 519 585 568 631 b 456 811 568 768 522 811 b 343 711 397 811 357 776 l 122 711 b 485 1003 144 890 283 1003 b 796 743 674 1003 796 896 b 586 501 796 626 722 538 b 758 286 697 475 758 397 b 404 -25 758 104 619 -25 b 42 321 179 -25 43 106 "},"4":{"ha":849,"x_min":0,"x_max":0,"o":"m 424 225 l -1 225 l 29 415 l 479 983 l 768 983 l 678 415 l 807 415 l 778 225 l 647 225 l 613 0 l 389 0 m 511 721 b 536 828 517 754 526 790 b 461 717 515 790 489 751 l 224 415 l 454 415 "},"5":{"ha":849,"x_min":0,"x_max":0,"o":"m 78 294 b 342 179 171 219 254 179 b 515 353 451 179 515 246 b 308 515 515 453 439 515 b 125 478 249 515 188 503 l 257 983 l 790 983 l 750 778 l 406 778 l 369 638 b 469 650 408 646 440 650 b 758 356 643 650 758 531 b 356 -26 758 133 606 -26 b -6 85 222 -26 101 10 l 78 294 "},"6":{"ha":849,"x_min":0,"x_max":0,"o":"m 263 329 b 413 179 263 249 329 179 b 561 329 493 179 561 243 b 413 478 561 414 496 478 b 263 329 328 478 263 408 m 442 646 b 506 651 464 650 485 651 b 785 351 674 651 785 532 b 408 -24 785 132 628 -24 b 40 328 182 -24 40 114 b 344 867 40 511 163 658 l 450 988 l 746 988 l 442 646 "},"7":{"ha":849,"x_min":0,"x_max":0,"o":"m 531 757 l 111 757 l 147 983 l 922 983 l 915 954 l 329 0 l 49 0 "},"8":{"ha":849,"x_min":0,"x_max":0,"o":"m 267 538 b 144 733 186 582 144 650 b 465 1003 144 890 272 1003 b 785 740 658 1003 785 889 b 611 522 785 638 726 563 b 767 290 711 489 767 406 b 379 -26 767 107 614 -26 b 32 267 174 -26 32 96 b 267 538 32 410 118 510 m 461 838 b 351 717 400 838 351 785 b 461 610 351 653 396 610 b 572 724 524 610 572 654 b 461 838 572 790 522 838 m 271 303 b 390 174 271 226 321 174 b 521 304 464 174 521 228 b 397 432 521 379 469 432 b 271 303 326 432 271 371 "},"9":{"ha":849,"x_min":0,"x_max":0,"o":"m 594 651 b 446 801 594 732 529 801 b 297 651 365 801 297 738 b 446 503 297 567 363 503 b 594 651 531 503 594 572 m 417 335 b 353 329 394 331 374 329 b 74 629 185 329 74 449 b 450 1004 74 849 231 1004 b 817 653 676 1004 817 867 b 514 114 817 489 711 326 l 408 0 l 128 0 l 417 335 "}," ":{"ha":425,"x_min":0,"x_max":0,"o":""},"!":{"ha":499,"x_min":0,"x_max":0,"o":"m 457 1015 l 349 329 l 96 329 l 204 1015 m 54 113 b 192 249 54 186 115 249 b 329 113 268 249 329 190 b 192 -25 329 33 267 -25 b 54 113 115 -25 54 39 "},"\"":{"ha":483,"x_min":0,"x_max":0,"o":"m 200 975 l 200 594 l 51 594 l 51 975 m 433 975 l 433 594 l 282 594 l 282 975 "},"#":{"ha":1068,"x_min":0,"x_max":0,"o":"m 633 994 l 539 726 l 699 726 l 794 994 l 964 994 l 869 726 l 1053 726 l 994 571 l 813 571 l 758 415 l 946 415 l 889 258 l 703 258 l 607 -8 l 438 -8 l 532 258 l 372 258 l 276 -8 l 107 -8 l 201 258 l 15 258 l 74 415 l 257 415 l 313 571 l 121 571 l 179 726 l 368 726 l 464 994 m 424 414 l 590 414 l 646 571 l 479 571 "},"$":{"ha":849,"x_min":0,"x_max":0,"o":"m 121 326 b 392 189 204 235 297 189 b 528 286 479 189 528 228 b 385 408 528 347 478 371 b 135 664 219 475 135 546 b 472 985 135 843 264 974 l 488 1075 l 572 1075 l 557 982 b 797 876 642 975 721 939 l 678 703 b 468 797 608 767 543 797 b 346 715 390 797 346 764 b 539 586 346 658 425 642 b 754 317 686 514 754 454 b 394 -4 754 150 617 11 l 367 -165 l 282 -165 l 310 -4 b 0 154 192 4 88 57 l 121 326 "},"%":{"ha":1140,"x_min":0,"x_max":0,"o":"m 814 1003 l 942 1003 l 325 -26 l 200 -26 m 518 792 b 256 490 518 618 407 490 b 43 700 124 490 43 569 b 310 1004 43 885 154 1004 b 518 792 436 1004 518 922 m 260 601 b 357 824 311 601 357 699 b 310 903 357 879 344 903 b 211 679 257 903 211 807 b 260 601 211 625 225 601 m 1094 275 b 828 -28 1094 99 981 -28 b 621 178 704 -28 621 54 b 888 486 621 361 731 486 b 1094 275 1014 486 1094 406 m 832 85 b 929 307 883 85 929 182 b 882 388 929 363 917 388 b 783 163 829 388 783 290 b 832 85 783 108 797 85 "},"&":{"ha":1068,"x_min":0,"x_max":0,"o":"m 678 78 b 364 -26 576 8 474 -26 b 36 271 164 -26 36 96 b 307 569 36 407 122 488 b 251 750 269 629 251 689 b 543 999 251 892 372 999 b 825 757 715 999 825 899 b 599 492 825 638 753 569 l 721 346 l 779 389 b 874 492 792 399 824 431 l 1017 340 b 849 193 967 285 911 235 l 1011 0 l 744 0 m 394 415 b 279 283 317 385 279 343 b 397 174 279 218 325 174 b 553 228 443 174 493 192 m 561 661 b 629 764 607 688 629 722 b 547 838 629 804 596 838 b 450 746 492 838 450 799 b 464 688 450 726 454 704 l 499 624 "},"’":{"ha":499,"x_min":0,"x_max":0,"o":"m 272 993 l 560 993 l 233 578 l 25 578 "},"(":{"ha":499,"x_min":0,"x_max":0,"o":"m 197 -297 b 50 228 100 -126 50 46 b 401 1026 50 546 171 818 l 533 904 b 244 222 344 733 244 497 b 356 -219 244 61 281 -82 "},")":{"ha":499,"x_min":0,"x_max":0,"o":"m 268 1026 b 414 501 365 856 414 683 b 64 -297 414 183 294 -89 l -69 -175 b 219 518 119 -4 219 233 b 110 949 219 672 183 813 "},"*":{"ha":643,"x_min":0,"x_max":0,"o":"m 572 894 l 618 763 l 446 729 l 593 633 l 503 529 l 386 663 l 376 486 l 242 513 l 297 679 l 142 599 l 96 729 l 269 764 l 121 860 l 213 964 l 326 832 l 336 1007 l 472 981 l 417 814 "},"+":{"ha":1157,"x_min":0,"x_max":0,"o":"m 660 828 l 660 493 l 985 493 l 985 336 l 660 336 l 660 0 l 499 0 l 499 336 l 172 336 l 172 493 l 499 493 l 499 828 "},",":{"ha":425,"x_min":0,"x_max":0,"o":"m 82 218 l 371 218 l 44 -197 l -164 -197 "},"-":{"ha":633,"x_min":0,"x_max":0,"o":"m 79 446 l 539 446 l 506 236 l 46 236 "},".":{"ha":425,"x_min":0,"x_max":0,"o":"m 25 113 b 161 249 25 186 85 249 b 299 113 238 249 299 190 b 163 -25 299 33 238 -25 b 25 113 86 -25 25 39 "},"/":{"ha":675,"x_min":0,"x_max":0,"o":"m 531 1015 l 675 1015 l 144 -129 l 0 -129 "},":":{"ha":499,"x_min":0,"x_max":0,"o":"m 117 529 b 253 665 117 603 176 665 b 390 529 329 665 390 607 b 253 392 390 450 328 392 b 117 529 176 392 117 456 m 44 113 b 181 249 44 186 104 249 b 318 113 257 249 318 190 b 182 -25 318 33 257 -25 b 44 113 106 -25 44 39 "},";":{"ha":499,"x_min":0,"x_max":0,"o":"m 119 529 b 256 665 119 603 179 665 b 393 529 332 665 393 607 b 257 392 393 450 332 392 b 119 529 181 392 119 456 m 90 218 l 379 218 l 53 -197 l -156 -197 "},"<":{"ha":1157,"x_min":0,"x_max":0,"o":"m 978 651 l 399 414 l 978 178 l 978 6 l 179 335 l 179 493 l 978 824 "},"=":{"ha":1157,"x_min":0,"x_max":0,"o":"m 985 644 l 985 488 l 172 488 l 172 644 m 985 340 l 985 185 l 172 185 l 172 340 "},">":{"ha":1157,"x_min":0,"x_max":0,"o":"m 978 493 l 978 335 l 179 6 l 179 178 l 758 414 l 179 651 l 179 824 "},"?":{"ha":783,"x_min":0,"x_max":0,"o":"m 261 589 b 311 588 279 588 296 588 b 511 718 443 588 511 633 b 408 810 511 768 468 810 b 300 722 353 810 311 778 l 72 722 b 421 1017 94 904 226 1017 b 744 726 614 1017 744 893 b 482 451 744 569 636 451 l 464 451 l 443 319 l 217 319 m 165 108 b 300 243 165 179 225 243 b 433 108 378 243 433 185 b 300 -26 433 31 378 -26 b 165 108 219 -26 165 29 "},"@":{"ha":1389,"x_min":0,"x_max":0,"o":"m 813 472 b 704 578 804 542 765 578 b 528 301 613 578 528 453 b 618 183 528 225 561 183 b 778 331 692 183 756 239 l 813 472 m 788 178 b 588 71 736 103 675 71 b 363 304 440 71 363 150 b 696 689 363 526 511 689 b 851 606 765 689 817 661 l 886 668 l 1026 668 l 922 254 b 919 232 921 246 919 239 b 963 192 919 206 933 192 b 1196 517 1085 192 1196 342 b 757 883 1196 729 1022 883 b 415 785 622 883 508 850 b 196 357 275 685 196 531 b 703 -92 196 83 394 -92 b 1107 35 850 -92 990 -49 l 1172 -57 b 703 -215 1032 -162 875 -215 b 267 -83 526 -215 379 -169 b 56 353 125 26 56 169 b 197 758 56 506 104 644 b 758 1011 331 922 525 1011 b 1151 890 917 1011 1056 965 b 1335 518 1274 794 1335 674 b 1161 147 1335 367 1274 238 b 938 69 1097 96 1018 69 b 788 178 842 69 792 106 "},"A":{"ha":988,"x_min":0,"x_max":0,"o":"m 614 408 l 568 640 b 554 753 561 678 556 715 b 510 636 532 690 517 651 l 404 408 m 418 993 l 750 993 l 961 0 l 692 0 l 651 188 l 304 188 l 210 0 l -79 0 "},"B":{"ha":868,"x_min":0,"x_max":0,"o":"m 403 608 b 571 719 513 608 571 628 b 447 803 571 779 531 803 l 410 803 l 381 608 m 347 194 b 547 326 479 194 547 210 b 399 426 547 403 500 426 l 351 426 l 315 194 m 613 517 b 807 292 739 493 807 414 b 681 50 807 189 758 99 b 354 0 606 3 500 0 l 26 0 l 185 993 l 410 993 b 688 965 532 993 622 992 b 822 757 771 932 822 851 b 613 517 822 626 743 535 "},"C":{"ha":907,"x_min":0,"x_max":0,"o":"m 878 672 b 614 772 800 739 708 772 b 331 467 450 772 331 646 b 588 214 331 307 422 214 b 814 265 661 214 735 232 l 772 8 b 528 -25 704 -14 622 -25 b 60 456 242 -25 60 168 b 189 829 60 597 106 726 b 625 1017 288 950 439 1017 b 922 946 743 1017 840 988 "},"D":{"ha":1049,"x_min":0,"x_max":0,"o":"m 328 221 b 393 218 350 219 372 218 b 718 533 607 218 718 328 b 463 774 718 706 638 774 l 413 774 l 328 221 m 182 993 l 353 993 b 758 946 536 993 669 990 b 985 528 904 872 985 726 b 775 96 985 338 917 196 b 256 0 642 3 476 0 l 26 0 "},"E":{"ha":757,"x_min":0,"x_max":0,"o":"m 635 221 l 600 0 l 28 0 l 185 993 l 757 993 l 721 764 l 414 764 l 389 601 l 674 601 l 640 386 l 354 386 l 328 221 "},"F":{"ha":751,"x_min":0,"x_max":0,"o":"m 185 993 l 758 993 l 722 765 l 414 765 l 388 601 l 676 601 l 642 388 l 354 388 l 293 0 l 28 0 "},"G":{"ha":1132,"x_min":0,"x_max":0,"o":"m 1097 540 b 572 -26 1089 182 889 -26 b 60 446 256 -26 60 161 b 225 858 60 604 119 751 b 631 1015 325 958 467 1015 b 1064 783 819 1015 960 942 l 853 639 b 631 772 803 728 731 772 b 343 454 464 772 343 638 b 578 203 343 300 439 203 b 717 239 631 203 678 215 b 793 338 753 261 778 294 l 567 338 l 599 540 "},"H":{"ha":1093,"x_min":0,"x_max":0,"o":"m 185 993 l 451 993 l 390 610 l 738 610 l 797 993 l 1065 993 l 908 0 l 640 0 l 704 406 l 358 406 l 294 0 l 28 0 "},"I":{"ha":492,"x_min":0,"x_max":0,"o":"m 189 993 l 460 993 l 303 0 l 32 0 "},"J":{"ha":660,"x_min":0,"x_max":0,"o":"m 60 264 b 167 197 99 221 129 197 b 286 440 247 197 260 275 l 374 993 l 640 993 l 538 344 b 435 57 519 228 508 133 b 200 -35 376 -3 297 -35 b -71 79 83 -35 -7 3 l 60 264 "},"K":{"ha":983,"x_min":0,"x_max":0,"o":"m 185 993 l 450 993 l 383 578 l 761 993 l 1104 993 l 615 503 l 953 0 l 639 0 l 361 438 l 292 0 l 28 0 "},"L":{"ha":711,"x_min":0,"x_max":0,"o":"m 185 993 l 451 993 l 332 238 l 660 238 l 622 0 l 28 0 "},"M":{"ha":1293,"x_min":0,"x_max":0,"o":"m 274 993 l 568 993 l 635 608 b 656 453 643 560 650 507 b 711 603 668 503 689 553 l 889 993 l 1182 993 l 1206 0 l 961 0 l 958 474 b 964 631 958 519 960 572 b 903 483 946 569 921 522 l 676 0 l 515 0 l 422 482 b 399 631 414 525 406 575 b 365 474 389 572 378 519 l 228 0 l -31 0 "},"N":{"ha":1135,"x_min":0,"x_max":0,"o":"m 185 993 l 488 993 l 697 503 b 754 340 713 465 738 414 l 754 365 b 767 506 754 410 760 457 l 843 993 l 1108 993 l 951 0 l 660 0 l 438 506 b 379 668 419 546 396 599 l 379 640 b 368 503 379 592 374 546 l 293 0 l 28 0 "},"O":{"ha":1196,"x_min":0,"x_max":0,"o":"m 560 -26 b 211 90 417 -26 301 13 b 60 439 117 172 60 300 b 196 822 60 586 106 717 b 638 1015 301 946 458 1015 b 1138 551 939 1015 1138 824 b 1000 168 1138 404 1090 272 b 560 -26 892 42 740 -26 m 621 772 b 335 468 457 772 335 639 b 575 217 335 315 429 217 b 861 528 735 217 861 354 b 621 772 861 672 758 772 "},"P":{"ha":894,"x_min":0,"x_max":0,"o":"m 186 993 l 458 993 b 728 953 565 993 654 990 b 879 686 828 901 879 813 b 729 392 879 558 818 447 b 458 346 658 349 571 346 l 347 346 l 292 0 l 28 0 m 406 557 b 625 676 547 557 625 574 b 464 782 625 751 572 782 l 417 782 l 381 557 "},"Q":{"ha":1196,"x_min":0,"x_max":0,"o":"m 836 -103 l 751 8 b 539 -24 683 -14 611 -24 b 56 442 249 -24 56 168 b 192 822 56 589 101 717 b 633 1017 297 946 454 1017 b 1133 554 935 1017 1133 825 b 946 118 1133 379 1069 229 l 1111 -103 m 735 408 l 797 319 b 867 526 843 376 867 449 b 624 774 867 672 764 774 b 331 464 456 774 331 638 b 565 208 331 308 425 208 b 606 213 576 208 590 211 l 451 408 "},"R":{"ha":919,"x_min":0,"x_max":0,"o":"m 460 539 b 622 679 565 539 622 589 b 457 800 622 767 568 800 l 418 800 l 376 539 m 28 0 l 185 993 l 449 993 b 728 956 564 993 654 990 b 881 703 828 908 881 822 b 604 392 881 540 779 421 l 846 0 l 543 0 l 351 379 l 292 0 "},"S":{"ha":797,"x_min":0,"x_max":0,"o":"m 117 342 b 353 214 196 257 268 214 b 463 303 422 214 463 251 b 324 429 463 361 411 383 b 119 683 193 497 119 558 b 475 1018 119 878 264 1018 b 778 903 585 1018 688 979 l 664 707 b 485 797 594 767 536 797 b 390 717 429 797 390 761 b 547 593 390 663 458 643 b 733 326 675 522 733 456 b 322 -25 733 118 582 -25 b -21 143 189 -25 72 32 l 117 342 "},"T":{"ha":758,"x_min":0,"x_max":0,"o":"m 286 763 l 64 763 l 101 993 l 803 993 l 765 763 l 553 763 l 432 0 l 165 0 "},"U":{"ha":1038,"x_min":0,"x_max":0,"o":"m 439 993 l 360 494 b 343 349 350 436 343 389 b 479 214 343 264 393 214 b 699 632 635 214 654 350 l 756 993 l 1022 993 l 933 429 b 860 169 918 333 904 246 b 464 -29 786 42 649 -29 b 72 282 226 -29 72 94 b 104 569 72 340 83 436 l 172 993 "},"V":{"ha":942,"x_min":0,"x_max":0,"o":"m 14 993 l 296 993 l 418 425 b 432 313 425 393 429 356 b 476 428 453 372 468 410 l 739 993 l 1035 993 l 508 0 l 278 0 "},"W":{"ha":1389,"x_min":0,"x_max":0,"o":"m 38 993 l 301 993 l 378 457 b 392 306 385 406 390 356 b 436 463 410 376 425 429 l 613 993 l 857 993 l 929 457 b 943 306 936 407 942 357 b 992 463 953 354 971 406 l 1192 993 l 1467 993 l 1051 0 l 779 0 l 711 463 b 697 614 704 513 699 563 b 653 457 681 549 665 496 l 503 0 l 219 0 "},"X":{"ha":1040,"x_min":0,"x_max":0,"o":"m 368 536 l 103 993 l 404 993 l 508 797 b 544 721 521 774 533 747 b 593 799 558 750 575 775 l 740 993 l 1065 993 l 682 521 l 992 0 l 681 0 l 538 265 b 501 342 526 286 514 313 b 454 263 488 314 472 286 l 257 0 l -72 0 "},"Y":{"ha":810,"x_min":0,"x_max":0,"o":"m 251 443 l -28 993 l 268 993 l 376 739 b 413 642 388 714 400 681 b 460 742 435 694 450 728 l 636 993 l 942 993 l 518 440 l 449 0 l 182 0 "},"Z":{"ha":903,"x_min":0,"x_max":0,"o":"m 494 775 l 113 775 l 143 993 l 963 993 l 404 236 l 843 236 l 807 0 l -76 0 "},"[":{"ha":499,"x_min":0,"x_max":0,"o":"m 554 1015 l 529 851 l 368 851 l 213 -122 l 374 -122 l 349 -286 l -17 -286 l 190 1015 "},"\\":{"ha":675,"x_min":0,"x_max":0,"o":"m 422 -129 l 106 1015 l 250 1015 l 567 -129 "},"]":{"ha":499,"x_min":0,"x_max":0,"o":"m -97 -286 l -72 -122 l 89 -122 l 243 851 l 82 851 l 108 1015 l 474 1015 l 267 -286 "},"^":{"ha":1389,"x_min":0,"x_max":0,"o":"m 792 992 l 1107 610 l 928 610 l 694 842 l 460 610 l 281 610 l 596 992 "},"_":{"ha":694,"x_min":0,"x_max":0,"o":"m 694 -165 l 694 -328 l 0 -328 l 0 -165 "},"‘":{"ha":499,"x_min":0,"x_max":0,"o":"m 313 578 l 24 578 l 350 993 l 558 993 "},"a":{"ha":926,"x_min":0,"x_max":0,"o":"m 542 92 b 301 -25 475 14 393 -25 b 32 294 147 -25 32 101 b 390 707 32 533 188 707 b 619 586 485 707 558 668 l 635 685 l 864 685 l 756 0 l 531 0 l 542 92 m 275 318 b 421 172 275 229 335 172 b 589 368 517 172 589 256 b 444 511 589 453 531 511 b 275 318 346 511 275 429 "},"b":{"ha":926,"x_min":0,"x_max":0,"o":"m 357 693 b 329 590 353 663 343 629 b 574 704 407 667 488 704 b 844 386 728 704 844 578 b 486 -26 844 147 690 -26 b 253 94 394 -26 322 13 l 238 0 l 13 0 l 179 1051 l 414 1051 l 357 693 m 601 368 b 456 514 601 457 542 514 b 288 319 360 514 288 432 b 432 176 288 235 346 176 b 601 368 531 176 601 257 "},"c":{"ha":694,"x_min":0,"x_max":0,"o":"m 603 435 b 447 514 554 488 504 514 b 279 322 351 514 279 431 b 418 175 279 232 332 175 b 571 232 471 175 521 193 l 535 7 b 353 -26 471 -15 411 -26 b 28 313 158 -26 28 113 b 431 710 28 543 185 710 b 636 644 507 710 578 688 l 603 435 "},"d":{"ha":926,"x_min":0,"x_max":0,"o":"m 757 0 l 529 0 l 543 89 b 301 -28 475 11 393 -28 b 32 292 147 -28 32 100 b 390 703 32 531 186 703 b 621 583 482 703 554 665 l 621 603 b 628 690 621 633 624 663 l 685 1051 l 922 1051 m 281 322 b 426 176 281 233 340 176 b 594 372 522 176 594 260 b 450 515 594 457 536 515 b 281 322 351 515 281 433 "},"e":{"ha":829,"x_min":0,"x_max":0,"o":"m 249 269 b 379 136 249 182 294 136 b 549 215 440 136 490 161 l 679 83 b 374 -28 600 8 497 -28 b 21 311 149 -28 21 99 b 417 707 21 546 183 707 b 768 353 629 707 768 565 b 763 285 768 335 765 313 l 249 285 m 542 424 b 415 544 538 499 489 544 b 265 424 350 544 293 501 l 542 424 "},"f":{"ha":514,"x_min":0,"x_max":0,"o":"m 119 510 l 6 510 l 33 685 l 147 685 l 158 754 b 224 969 172 842 179 914 b 449 1068 272 1031 353 1068 b 592 1039 493 1068 540 1058 l 561 843 b 486 863 532 857 506 863 b 396 746 428 863 408 826 l 386 685 l 536 685 l 508 510 l 360 510 l 279 0 l 39 0 "},"g":{"ha":917,"x_min":0,"x_max":0,"o":"m 779 161 b 685 -167 757 15 747 -92 b 346 -303 613 -253 494 -303 b -11 -50 135 -303 13 -215 l 242 -50 b 353 -136 247 -106 286 -136 b 528 43 454 -136 511 -78 l 536 101 b 304 -11 475 26 397 -11 b 32 303 146 -11 32 114 b 390 707 32 536 186 707 b 619 589 488 707 560 665 l 635 685 l 861 685 l 779 161 m 275 318 b 417 171 275 231 332 171 b 589 368 514 171 589 254 b 444 511 589 454 531 511 b 275 318 346 511 275 428 "},"h":{"ha":875,"x_min":0,"x_max":0,"o":"m 175 1051 l 413 1051 l 351 682 b 331 578 346 646 339 611 b 564 707 403 665 472 707 b 788 489 706 707 788 626 b 774 360 788 450 781 407 l 717 0 l 475 0 l 532 363 b 538 419 536 388 538 407 b 444 510 538 479 506 510 b 294 319 357 510 314 447 l 246 0 l 7 0 "},"i":{"ha":433,"x_min":0,"x_max":0,"o":"m 126 685 l 369 685 l 261 0 l 18 0 m 144 889 b 274 1018 144 958 200 1018 b 404 889 347 1018 404 964 b 274 758 404 814 344 758 b 144 889 201 758 144 818 "},"j":{"ha":433,"x_min":0,"x_max":0,"o":"m -32 -303 l 126 685 l 369 685 l 211 -303 m 144 889 b 274 1018 144 958 200 1018 b 404 889 347 1018 404 964 b 274 758 404 814 344 758 b 144 889 201 758 144 818 "},"k":{"ha":836,"x_min":0,"x_max":0,"o":"m 579 685 l 883 685 l 549 351 l 772 0 l 483 0 l 310 324 l 258 0 l 18 0 l 183 1051 l 425 1051 l 319 394 "},"l":{"ha":433,"x_min":0,"x_max":0,"o":"m 428 1051 l 260 0 l 17 0 l 185 1051 "},"m":{"ha":1268,"x_min":0,"x_max":0,"o":"m 115 685 l 328 685 l 313 571 b 538 707 378 663 449 707 b 743 574 639 707 700 668 b 968 707 811 664 879 707 b 1181 482 1106 707 1181 629 b 1169 360 1181 450 1178 408 l 1113 0 l 886 0 l 943 363 b 946 406 946 378 946 392 b 857 510 946 475 917 510 b 718 318 774 510 738 447 l 671 0 l 444 0 l 501 363 b 507 417 504 383 507 401 b 419 510 507 476 476 510 b 282 318 332 510 301 444 l 232 0 l 7 0 "},"n":{"ha":875,"x_min":0,"x_max":0,"o":"m 115 685 l 347 685 l 331 578 b 564 707 403 665 472 707 b 788 489 706 707 788 626 b 774 360 788 450 781 407 l 717 0 l 475 0 l 532 363 b 538 419 536 388 538 407 b 444 510 538 479 506 510 b 294 319 357 510 314 447 l 246 0 l 7 0 "},"o":{"ha":851,"x_min":0,"x_max":0,"o":"m 18 310 b 424 708 18 543 188 708 b 785 367 644 708 785 572 b 372 -28 785 142 619 -28 b 18 310 157 -28 18 107 m 419 511 b 250 307 325 511 250 422 b 382 169 250 222 303 169 b 554 374 483 169 554 256 b 419 511 554 460 501 511 "},"p":{"ha":926,"x_min":0,"x_max":0,"o":"m 128 685 l 356 685 l 340 590 b 581 707 408 668 489 707 b 850 389 735 707 850 581 b 492 -24 850 150 696 -24 b 261 97 399 -24 326 15 b 254 -11 261 50 258 14 l 210 -303 l -29 -303 m 601 358 b 456 504 601 447 542 504 b 288 308 360 504 288 421 b 432 167 288 224 346 167 b 601 358 531 167 601 247 "},"q":{"ha":926,"x_min":0,"x_max":0,"o":"m 513 -14 b 542 90 517 14 526 49 b 301 -26 476 13 393 -26 b 32 292 147 -26 32 100 b 390 704 32 531 186 704 b 621 583 488 704 561 661 l 635 685 l 864 685 l 707 -303 l 469 -303 l 513 -14 m 275 317 b 421 171 275 228 335 171 b 589 365 517 171 589 253 b 444 508 589 450 531 508 b 275 317 346 508 275 428 "},"r":{"ha":579,"x_min":0,"x_max":0,"o":"m 115 685 l 347 685 l 331 568 b 540 701 372 654 444 701 b 588 696 554 701 571 699 l 539 481 b 460 492 511 488 486 492 b 294 313 365 492 314 433 l 246 0 l 7 0 "},"s":{"ha":638,"x_min":0,"x_max":0,"o":"m 510 481 b 346 544 451 522 400 544 b 271 493 300 544 271 521 b 390 415 271 451 318 447 b 567 213 508 364 567 313 b 261 -26 567 71 450 -26 b -28 57 156 -26 61 1 l 53 221 b 257 143 132 172 194 143 b 336 200 307 143 336 168 b 190 299 336 247 279 260 b 44 478 90 343 44 392 b 338 707 44 601 157 707 b 581 635 425 707 508 682 "},"t":{"ha":478,"x_min":0,"x_max":0,"o":"m 119 510 l 6 510 l 33 685 l 147 685 l 178 883 l 419 883 l 388 685 l 510 685 l 482 510 l 360 510 l 279 0 l 39 0 "},"u":{"ha":849,"x_min":0,"x_max":0,"o":"m 343 685 l 299 401 b 281 258 286 319 281 272 b 372 158 281 193 313 158 b 517 414 481 158 490 247 l 560 685 l 800 685 l 751 375 b 638 67 731 246 717 143 b 363 -26 574 6 481 -26 b 38 228 157 -26 38 75 b 61 422 38 274 47 338 l 103 685 "},"v":{"ha":811,"x_min":0,"x_max":0,"o":"m -22 685 l 226 685 l 322 346 b 340 233 331 318 338 281 b 394 350 365 292 383 331 l 582 685 l 846 685 l 422 0 l 213 0 "},"w":{"ha":1188,"x_min":0,"x_max":0,"o":"m -17 685 l 224 685 l 293 374 b 313 256 303 332 308 292 b 363 376 329 308 349 347 l 513 685 l 678 685 l 751 374 b 772 256 760 338 768 297 b 822 376 786 303 806 342 l 975 685 l 1224 685 l 853 0 l 667 0 l 590 317 b 571 429 583 347 576 386 b 521 313 560 394 542 356 l 369 0 l 186 0 "},"x":{"ha":765,"x_min":0,"x_max":0,"o":"m 228 358 l 29 685 l 289 685 l 347 574 b 378 499 358 553 368 529 b 426 576 392 526 408 553 l 508 685 l 783 685 l 513 356 l 711 0 l 440 0 l 376 126 b 344 203 365 147 353 172 b 296 124 329 174 314 147 l 201 0 l -99 0 "},"y":{"ha":729,"x_min":0,"x_max":0,"o":"m -17 685 l 233 685 l 293 389 b 311 269 299 361 310 322 b 360 392 322 308 339 349 l 501 685 l 761 685 l 229 -303 l -24 -303 l 178 35 "},"z":{"ha":744,"x_min":0,"x_max":0,"o":"m 340 514 l 58 514 l 85 685 l 746 685 l 350 194 l 664 194 l 633 0 l -72 0 "},"{":{"ha":694,"x_min":0,"x_max":0,"o":"m 606 838 b 578 839 596 838 586 839 b 465 715 483 839 465 810 l 465 553 b 322 360 465 435 438 383 b 465 168 439 336 465 286 l 465 4 b 576 -118 465 -89 483 -118 b 606 -117 586 -118 596 -117 l 606 -281 b 550 -282 586 -281 568 -282 b 347 -249 461 -282 394 -274 b 275 -58 282 -214 275 -154 l 275 115 b 128 279 275 235 236 279 b 103 278 121 279 111 278 l 103 442 b 128 440 111 442 119 440 b 275 606 236 440 275 488 l 275 778 b 347 969 275 874 282 935 b 551 1003 394 994 463 1003 b 606 1001 568 1003 586 1001 "},"|":{"ha":694,"x_min":0,"x_max":0,"o":"m 429 1061 l 429 -328 l 267 -328 l 267 1061 "},"}":{"ha":694,"x_min":0,"x_max":0,"o":"m 90 1001 b 144 1003 110 1001 128 1003 b 349 969 233 1003 300 994 b 421 778 414 935 421 874 l 421 606 b 568 440 421 486 460 440 b 593 442 576 440 585 442 l 593 278 b 568 279 585 278 576 279 b 421 115 460 279 421 233 l 421 -58 b 349 -250 421 -154 414 -215 b 151 -282 303 -275 238 -282 b 90 -281 132 -282 111 -281 l 90 -117 b 119 -118 101 -117 111 -118 b 231 4 214 -118 231 -89 l 231 168 b 374 360 231 285 257 336 b 231 553 257 383 231 435 l 231 715 b 122 839 231 807 214 839 b 90 838 113 839 101 838 l 90 1001 "},"~":{"ha":1157,"x_min":0,"x_max":0,"o":"m 1038 383 b 782 290 949 322 865 290 b 665 310 740 290 700 297 b 381 379 565 344 475 379 b 121 272 299 379 218 342 l 121 444 b 383 542 219 508 306 542 b 583 503 461 542 524 522 b 786 453 650 481 714 453 b 1038 556 867 453 946 489 "},"¡":{"ha":499,"x_min":0,"x_max":0,"o":"m 442 879 b 304 742 442 806 381 742 b 168 879 228 742 168 801 b 304 1015 168 958 229 1015 b 442 879 381 1015 442 953 m 39 -25 l 147 661 l 401 661 l 293 -25 "},"¢":{"ha":849,"x_min":0,"x_max":0,"o":"m 689 490 b 519 571 632 544 581 571 b 319 354 400 571 319 482 b 493 194 319 256 383 194 b 642 240 542 194 590 210 l 599 26 b 465 0 554 8 511 0 l 456 0 l 425 -157 l 339 -157 l 371 3 b 89 344 194 29 89 157 b 515 754 89 582 258 754 l 518 754 l 542 875 l 626 875 l 601 746 b 728 690 647 735 689 717 l 689 490 "},"£":{"ha":849,"x_min":0,"x_max":0,"o":"m 32 135 b 175 242 71 182 118 218 b 235 400 217 289 235 340 l 235 418 l 76 418 l 93 522 l 207 522 b 157 714 175 607 157 669 b 494 1003 157 878 296 1003 b 811 679 692 1003 804 889 l 586 679 b 493 801 582 761 553 801 b 397 715 436 801 397 767 b 433 522 397 676 428 615 l 635 522 l 618 418 l 421 418 b 299 242 399 344 360 286 l 314 242 b 526 196 410 242 475 196 b 631 257 563 196 593 217 l 781 114 b 529 -28 700 19 621 -28 b 258 32 433 -28 343 32 b 143 -24 218 32 182 14 l 32 135 "},"⁄":{"ha":232,"x_min":0,"x_max":0,"o":"m 321 1003 l 463 1003 l -86 -26 l -232 -26 "},"¥":{"ha":921,"x_min":0,"x_max":0,"o":"m 321 361 l -12 361 l 7 482 l 310 482 l 263 578 l 22 578 l 42 699 l 201 699 l 53 985 l 319 985 l 432 721 b 471 624 444 692 457 660 b 528 724 489 661 508 694 l 711 985 l 997 985 l 778 699 l 942 699 l 922 578 l 685 578 l 611 482 l 907 482 l 888 361 l 563 361 l 506 0 l 263 0 "},"ƒ":{"ha":849,"x_min":0,"x_max":0,"o":"m 104 -79 b 146 -85 119 -83 133 -85 b 269 199 232 -85 236 -6 l 314 468 l 196 468 l 224 636 l 342 636 l 360 739 b 636 1004 392 919 457 1004 b 763 985 678 1004 719 997 l 732 808 b 661 825 706 819 682 825 b 579 729 614 825 590 792 l 563 636 l 703 636 l 675 468 l 535 468 l 476 117 b 393 -171 456 -12 436 -108 b 175 -264 351 -233 278 -264 b 65 -250 139 -264 103 -258 l 104 -79 "},"§":{"ha":833,"x_min":0,"x_max":0,"o":"m 263 351 b 386 228 263 279 313 228 b 508 351 458 228 508 279 b 385 474 508 422 454 474 b 263 351 315 474 263 417 m 240 0 b 344 -118 243 -75 285 -118 b 439 -31 397 -118 439 -78 b 282 83 439 51 379 57 b 13 344 100 132 13 199 b 213 588 13 461 86 553 b 103 750 139 617 103 672 b 443 1015 103 900 238 1015 b 783 718 653 1015 783 900 l 783 715 l 529 715 l 529 719 b 435 831 529 792 494 831 b 339 744 376 831 339 794 b 515 632 339 668 410 660 b 774 379 688 588 774 506 b 568 125 774 257 700 163 b 676 -43 640 86 676 29 b 325 -299 676 -182 538 -299 b -10 0 122 -299 -10 -181 "},"¤":{"ha":849,"x_min":0,"x_max":0,"o":"m 825 710 b 622 788 763 761 694 788 b 392 622 511 788 438 733 l 747 622 l 700 538 l 376 538 b 367 447 369 507 367 478 l 653 447 l 607 364 l 364 364 b 567 183 374 247 447 183 b 761 243 631 183 690 206 l 714 6 b 531 -26 653 -15 594 -26 b 117 364 275 -26 126 115 l -15 364 l 19 447 l 117 447 b 126 538 118 479 122 510 l 13 538 l 47 622 l 142 622 b 618 1003 204 863 382 1003 b 871 933 706 1003 794 979 "},"'":{"ha":251,"x_min":0,"x_max":0,"o":"m 200 975 l 200 594 l 51 594 l 51 975 "},"“":{"ha":907,"x_min":0,"x_max":0,"o":"m 313 578 l 25 578 l 351 993 l 560 993 m 724 578 l 435 578 l 761 993 l 969 993 "},"«":{"ha":739,"x_min":0,"x_max":0,"o":"m 321 353 l 576 656 l 699 557 l 511 346 l 656 117 l 529 26 m 19 353 l 274 656 l 392 561 l 208 346 l 360 122 l 228 26 "},"‹":{"ha":438,"x_min":0,"x_max":0,"o":"m 19 353 l 274 656 l 396 557 l 208 346 l 353 117 l 228 26 "},"›":{"ha":438,"x_min":0,"x_max":0,"o":"m 369 329 l 114 26 l -8 124 l 179 335 l 35 564 l 161 656 "},"ﬁ":{"ha":950,"x_min":0,"x_max":0,"o":"m 119 510 l 6 510 l 33 685 l 147 685 l 158 754 b 224 969 172 842 179 914 b 449 1068 272 1031 353 1068 b 592 1039 493 1068 540 1058 l 561 843 b 486 863 532 857 506 863 b 396 746 428 863 408 826 l 386 685 l 536 685 l 508 510 l 360 510 l 279 0 l 39 0 m 660 889 b 790 1018 660 958 717 1018 b 921 889 864 1018 921 964 b 790 758 921 814 861 758 b 660 889 718 758 660 818 m 535 0 l 643 685 l 886 685 l 778 0 "},"ﬂ":{"ha":950,"x_min":0,"x_max":0,"o":"m 119 510 l 6 510 l 33 685 l 147 685 l 158 754 b 224 969 172 842 179 914 b 449 1068 272 1031 353 1068 b 592 1039 493 1068 540 1058 l 561 843 b 486 863 532 857 506 863 b 396 746 428 863 408 826 l 386 685 l 536 685 l 508 510 l 360 510 l 279 0 l 39 0 m 944 1051 l 778 0 l 535 0 l 701 1051 "},"–":{"ha":694,"x_min":0,"x_max":0,"o":"m -11 431 l 683 431 l 656 251 l -39 251 "},"†":{"ha":833,"x_min":0,"x_max":0,"o":"m 278 426 l 32 426 l 68 657 l 315 657 l 368 993 l 611 993 l 558 657 l 814 657 l 778 426 l 521 426 l 406 -303 l 163 -303 "},"‡":{"ha":833,"x_min":0,"x_max":0,"o":"m -36 -8 l -1 213 l 250 213 l 293 482 l 42 482 l 76 704 l 328 704 l 374 993 l 604 993 l 558 704 l 821 704 l 786 482 l 522 482 l 481 213 l 743 213 l 708 -8 l 444 -8 l 399 -303 l 168 -303 l 215 -8 "},"·":{"ha":425,"x_min":0,"x_max":0,"o":"m 72 488 b 210 625 72 561 133 625 b 347 488 286 625 347 565 b 210 351 347 408 285 351 b 72 488 133 351 72 414 "},"¶":{"ha":694,"x_min":0,"x_max":0,"o":"m 676 919 l 604 919 l 604 0 l 486 0 l 486 919 l 383 919 l 383 0 l 265 0 l 265 532 b 19 767 114 538 19 633 b 283 1003 19 906 119 1003 l 676 1003 "},"•":{"ha":819,"x_min":0,"x_max":0,"o":"m 208 517 b 410 717 208 628 299 717 b 610 517 519 717 610 628 b 408 315 610 407 519 315 b 208 517 297 315 208 406 "},"‚":{"ha":499,"x_min":0,"x_max":0,"o":"m 124 218 l 413 218 l 86 -197 l -122 -197 "},"„":{"ha":907,"x_min":0,"x_max":0,"o":"m 521 218 l 810 218 l 483 -197 l 274 -197 m 113 218 l 401 218 l 75 -197 l -133 -197 "},"”":{"ha":907,"x_min":0,"x_max":0,"o":"m 682 993 l 971 993 l 644 578 l 435 578 m 274 993 l 561 993 l 235 578 l 26 578 "},"»":{"ha":739,"x_min":0,"x_max":0,"o":"m 369 329 l 115 26 l -8 124 l 181 335 l 35 564 l 161 656 m 672 329 l 417 26 l 299 121 l 482 335 l 331 558 l 464 656 "},"…":{"ha":1389,"x_min":0,"x_max":0,"o":"m 44 113 b 181 249 44 186 104 249 b 318 113 257 249 318 190 b 182 -25 318 33 257 -25 b 44 113 106 -25 44 39 m 507 113 b 643 249 507 186 567 249 b 781 113 719 249 781 190 b 644 -25 781 33 719 -25 b 507 113 568 -25 507 39 m 971 113 b 1107 249 971 186 1031 249 b 1244 113 1183 249 1244 190 b 1108 -25 1244 33 1183 -25 b 971 113 1032 -25 971 39 "},"‰":{"ha":1678,"x_min":0,"x_max":0,"o":"m 814 1003 l 942 1003 l 325 -26 l 200 -26 m 518 792 b 256 490 518 618 407 490 b 43 700 124 490 43 569 b 310 1004 43 885 154 1004 b 518 792 436 1004 518 922 m 260 601 b 357 824 311 601 357 699 b 310 903 357 879 344 903 b 211 679 257 903 211 807 b 260 601 211 625 225 601 m 1094 275 b 828 -28 1094 99 981 -28 b 621 178 704 -28 621 54 b 888 486 621 361 731 486 b 1094 275 1014 486 1094 406 m 832 85 b 929 307 883 85 929 182 b 882 388 929 363 917 388 b 783 163 829 388 783 290 b 832 85 783 108 797 85 m 1631 275 b 1364 -28 1631 99 1517 -28 b 1157 178 1240 -28 1157 54 b 1424 486 1157 361 1267 486 b 1631 275 1550 486 1631 406 m 1372 85 b 1469 307 1424 85 1469 182 b 1422 388 1469 363 1457 388 b 1324 163 1369 388 1324 290 b 1372 85 1324 108 1338 85 "},"¿":{"ha":783,"x_min":0,"x_max":0,"o":"m 625 882 b 490 747 625 811 565 747 b 357 882 413 747 357 806 b 490 1017 357 960 413 1017 b 625 882 571 1017 625 961 m 529 403 b 481 404 513 404 496 404 b 279 272 347 404 279 357 b 382 182 279 222 322 182 b 490 269 438 182 479 214 l 718 269 b 369 -26 696 88 564 -26 b 46 265 176 -26 46 99 b 308 539 46 422 154 539 l 326 539 l 347 671 l 572 671 "},"`":{"ha":694,"x_min":0,"x_max":0,"o":"m 403 1021 l 507 782 l 411 782 l 222 1021 "},"´":{"ha":694,"x_min":0,"x_max":0,"o":"m 417 1021 l 626 1021 l 371 782 l 268 782 "},"ˆ":{"ha":694,"x_min":0,"x_max":0,"o":"m 511 782 l 424 906 l 275 782 l 171 782 l 339 1021 l 525 1021 l 606 782 "},"˜":{"ha":694,"x_min":0,"x_max":0,"o":"m 649 1013 b 490 838 618 894 571 838 b 431 847 471 838 451 840 l 388 863 b 344 869 374 867 360 869 b 276 804 311 869 286 847 l 196 804 b 356 982 224 922 276 982 b 418 971 374 982 396 978 l 461 957 b 497 950 478 951 490 950 b 568 1013 533 950 554 968 l 649 1013 "},"¯":{"ha":694,"x_min":0,"x_max":0,"o":"m 224 965 l 640 965 l 622 850 l 206 850 "},"˘":{"ha":694,"x_min":0,"x_max":0,"o":"m 318 1013 l 318 1006 b 417 917 318 946 350 917 b 567 1013 489 917 538 949 l 658 1013 b 404 803 618 874 532 803 b 228 983 288 803 228 864 b 229 1013 228 993 229 1003 "},"˙":{"ha":694,"x_min":0,"x_max":0,"o":"m 321 908 b 422 1008 321 961 369 1008 b 522 908 478 1008 522 964 b 422 807 522 850 481 807 b 321 908 367 807 321 853 "},"¨":{"ha":694,"x_min":0,"x_max":0,"o":"m 203 908 b 300 1004 203 958 247 1004 b 394 908 354 1004 394 961 b 300 811 394 851 356 811 b 203 908 246 811 203 853 m 449 908 b 546 1004 449 958 493 1004 b 642 908 600 1004 642 961 b 546 811 642 851 601 811 b 449 908 492 811 449 853 "},"˚":{"ha":694,"x_min":0,"x_max":0,"o":"m 250 954 b 433 1138 250 1057 331 1138 b 618 954 536 1138 618 1057 b 433 769 618 851 536 769 b 250 954 331 769 250 850 m 351 953 b 435 869 351 906 388 869 b 517 953 482 869 517 906 b 435 1038 517 1000 481 1038 b 351 953 388 1038 351 1001 "},"¸":{"ha":694,"x_min":0,"x_max":0,"o":"m 100 -207 b 258 -243 161 -232 214 -243 b 325 -192 300 -243 325 -222 b 217 -146 325 -157 290 -146 l 189 -146 l 240 0 l 318 0 l 296 -62 b 454 -181 401 -64 454 -103 b 264 -337 454 -278 388 -337 b 64 -297 215 -337 149 -324 "},"˝":{"ha":694,"x_min":0,"x_max":0,"o":"m 331 1021 l 510 1021 l 313 782 l 238 782 m 565 1021 l 750 1021 l 524 782 l 442 782 "},"˛":{"ha":694,"x_min":0,"x_max":0,"o":"m 315 0 b 235 -133 263 -49 235 -89 b 286 -187 235 -171 251 -187 l 367 -187 l 347 -317 l 306 -317 b 111 -183 175 -317 111 -286 b 243 0 111 -114 154 -57 l 315 0 "},"ˇ":{"ha":694,"x_min":0,"x_max":0,"o":"m 319 1021 l 407 899 l 556 1021 l 658 1021 l 490 782 l 306 782 l 224 1021 "},"—":{"ha":1389,"x_min":0,"x_max":0,"o":"m -11 431 l 1378 431 l 1350 251 l -39 251 "},"Æ":{"ha":1272,"x_min":0,"x_max":0,"o":"m 424 993 l 1058 993 l 1108 772 l 794 772 l 832 607 l 1147 607 l 1196 396 l 881 396 l 921 221 l 1236 221 l 1288 0 l 697 0 l 663 200 l 308 200 l 211 0 l -78 0 m 581 656 b 567 768 574 693 568 731 b 522 651 543 701 528 663 l 407 415 l 625 415 "},"ª":{"ha":694,"x_min":0,"x_max":0,"o":"m 407 578 b 226 496 357 524 294 496 b 24 719 111 496 24 585 b 293 1008 24 888 140 1008 b 465 924 364 1008 419 982 l 476 993 l 649 993 l 567 514 l 399 514 l 407 578 m 207 736 b 315 635 207 674 251 635 b 442 771 388 635 442 693 b 333 872 442 831 399 872 b 207 736 260 872 207 814 "},"Ł":{"ha":736,"x_min":0,"x_max":0,"o":"m 111 365 l 22 314 l -43 464 l 143 568 l 211 993 l 478 993 l 431 701 l 608 804 l 692 665 l 399 497 l 358 238 l 686 238 l 649 0 l 53 0 "},"Ø":{"ha":1196,"x_min":0,"x_max":0,"o":"m 65 13 l 175 122 b 57 450 94 213 57 318 b 197 829 57 585 107 722 b 635 1018 301 953 451 1018 b 957 924 760 1018 861 989 l 1057 1026 l 1125 963 l 1025 861 b 1139 547 1100 775 1139 671 b 999 165 1139 406 1089 272 b 554 -29 890 38 739 -29 b 242 61 426 -29 325 -1 l 133 -49 m 774 742 b 622 792 724 775 674 792 b 321 468 449 792 321 653 b 357 319 321 413 332 364 l 774 742 m 419 247 b 572 201 458 215 508 201 b 875 532 744 201 875 347 b 835 675 875 586 861 633 l 419 247 "},"Œ":{"ha":1494,"x_min":0,"x_max":0,"o":"m 1461 764 l 1154 764 l 1128 601 l 1414 601 l 1379 386 l 1093 386 l 1068 221 l 1375 221 l 1340 0 l 783 0 l 799 104 b 513 -24 725 18 632 -24 b 56 447 240 -24 56 168 b 192 824 56 588 103 719 b 618 1018 296 947 449 1018 b 925 879 758 1018 858 974 l 942 993 l 1497 993 m 619 789 b 319 467 447 789 319 649 b 572 201 319 306 418 201 b 872 531 742 201 872 349 b 619 789 872 683 764 789 "},"º":{"ha":639,"x_min":0,"x_max":0,"o":"m 14 731 b 318 1010 14 894 140 1010 b 589 771 483 1010 589 914 b 279 494 589 613 465 494 b 14 731 118 494 14 589 m 315 872 b 188 729 244 872 188 810 b 286 632 188 669 228 632 b 415 775 363 632 415 693 b 315 872 415 836 376 872 "},"æ":{"ha":1267,"x_min":0,"x_max":0,"o":"m 221 204 b 325 126 221 153 256 126 b 428 203 388 126 428 157 b 324 281 428 250 388 281 b 221 204 258 281 221 249 m 992 424 b 869 544 990 496 940 544 b 725 424 806 544 753 501 l 992 424 m 707 285 l 707 272 b 833 136 707 182 750 136 b 1007 215 897 136 949 161 l 1138 83 b 846 -28 1060 11 956 -28 b 558 96 708 -28 617 10 b 279 -29 493 8 404 -29 b -7 201 93 -29 -7 54 b 269 438 -7 346 106 438 b 458 374 343 438 407 415 l 458 419 b 286 540 458 494 394 540 b 81 479 225 540 154 521 l 117 663 b 343 704 186 692 260 704 b 601 564 460 704 549 657 b 875 706 664 657 757 706 b 1206 361 1074 706 1206 568 b 1200 285 1206 340 1204 315 "},"ı":{"ha":433,"x_min":0,"x_max":0,"o":"m 126 685 l 369 685 l 261 0 l 18 0 "},"ł":{"ha":474,"x_min":0,"x_max":0,"o":"m 19 329 l -44 453 l 124 550 l 204 1051 l 447 1051 l 383 656 l 461 701 l 531 582 l 356 482 l 279 0 l 36 0 l 96 375 "},"ø":{"ha":851,"x_min":0,"x_max":0,"o":"m 299 186 b 379 164 324 171 350 164 b 560 379 486 164 560 253 b 542 449 560 400 553 422 m 497 497 b 425 518 474 511 450 518 b 242 307 321 518 242 428 b 256 240 242 282 246 260 l 497 497 m 21 -6 l 101 79 b 18 310 47 135 18 213 b 429 708 18 543 188 708 b 638 653 510 708 578 692 l 707 728 l 764 679 l 696 604 b 785 371 756 542 785 465 b 371 -28 785 143 619 -28 b 160 31 293 -28 224 -8 l 76 -58 "},"œ":{"ha":1338,"x_min":0,"x_max":0,"o":"m 426 532 b 246 304 325 532 246 435 b 383 149 246 207 300 149 b 564 378 489 149 564 242 b 426 532 564 474 513 532 m 1068 424 b 942 544 1063 500 1015 544 b 792 424 876 544 819 501 l 1068 424 m 775 285 l 775 272 b 901 136 775 182 818 136 b 1075 215 965 136 1017 161 l 1206 83 b 915 -28 1128 11 1025 -28 b 642 61 793 -28 703 1 b 374 -26 572 1 483 -26 b 18 300 158 -26 18 107 b 426 708 18 543 186 708 b 683 617 533 708 621 676 b 940 707 756 676 840 707 b 1281 361 1144 707 1281 568 b 1276 285 1281 340 1278 315 "},"ß":{"ha":913,"x_min":0,"x_max":0,"o":"m 118 686 b 243 981 139 818 163 914 b 518 1063 310 1036 401 1063 b 858 799 736 1063 858 960 b 638 565 858 665 782 583 b 849 324 781 529 849 453 b 485 -18 849 121 711 -18 b 342 6 433 -18 386 -11 l 369 181 b 450 168 401 171 428 168 b 606 347 542 168 606 242 b 421 503 606 446 542 501 l 446 660 b 483 658 458 658 471 658 b 636 786 583 658 636 704 b 526 886 636 844 590 886 b 356 661 407 886 381 815 l 251 0 l 11 0 "},"Á":{"ha":988,"x_min":0,"x_max":0,"o":"m 614 408 l 568 640 b 554 753 561 678 556 715 b 510 636 532 690 517 651 l 404 408 m 418 993 l 750 993 l 961 0 l 692 0 l 651 188 l 304 188 l 210 0 l -79 0 m 606 1329 l 815 1329 l 560 1090 l 457 1090 "},"Â":{"ha":988,"x_min":0,"x_max":0,"o":"m 614 408 l 568 640 b 554 753 561 678 556 715 b 510 636 532 690 517 651 l 404 408 m 418 993 l 750 993 l 961 0 l 692 0 l 651 188 l 304 188 l 210 0 l -79 0 m 700 1090 l 613 1214 l 464 1090 l 360 1090 l 528 1329 l 714 1329 l 794 1090 "},"Ä":{"ha":988,"x_min":0,"x_max":0,"o":"m 614 408 l 568 640 b 554 753 561 678 556 715 b 510 636 532 690 517 651 l 404 408 m 418 993 l 750 993 l 961 0 l 692 0 l 651 188 l 304 188 l 210 0 l -79 0 m 392 1217 b 489 1313 392 1267 436 1313 b 583 1217 543 1313 583 1269 b 489 1119 583 1160 544 1119 b 392 1217 435 1119 392 1161 m 638 1217 b 735 1313 638 1267 682 1313 b 831 1217 789 1313 831 1269 b 735 1119 831 1160 790 1119 b 638 1217 681 1119 638 1161 "},"À":{"ha":988,"x_min":0,"x_max":0,"o":"m 614 408 l 568 640 b 554 753 561 678 556 715 b 510 636 532 690 517 651 l 404 408 m 418 993 l 750 993 l 961 0 l 692 0 l 651 188 l 304 188 l 210 0 l -79 0 m 592 1329 l 696 1090 l 600 1090 l 411 1329 "},"Å":{"ha":988,"x_min":0,"x_max":0,"o":"m 432 993 l 529 990 l 529 993 b 406 1160 454 1013 406 1079 b 583 1338 406 1260 483 1338 b 763 1160 683 1338 763 1258 b 643 993 763 1082 717 1019 l 643 990 l 735 993 l 961 0 l 692 0 l 651 188 l 304 188 l 210 0 l -79 0 m 614 408 l 553 726 l 404 408 m 508 1160 b 588 1081 508 1117 544 1081 b 667 1160 632 1081 667 1117 b 588 1239 667 1203 631 1239 b 508 1160 544 1239 508 1204 "},"Ã":{"ha":988,"x_min":0,"x_max":0,"o":"m 614 408 l 568 640 b 554 753 561 678 556 715 b 510 636 532 690 517 651 l 404 408 m 418 993 l 750 993 l 961 0 l 692 0 l 651 188 l 304 188 l 210 0 l -79 0 m 838 1321 b 679 1146 807 1203 760 1146 b 619 1156 660 1146 640 1149 l 576 1171 b 533 1178 563 1175 549 1178 b 465 1113 500 1178 475 1156 l 385 1113 b 544 1290 413 1231 465 1290 b 607 1279 563 1290 585 1286 l 650 1265 b 686 1258 667 1260 679 1258 b 757 1321 722 1258 743 1276 l 838 1321 "},"Ç":{"ha":907,"x_min":0,"x_max":0,"o":"m 878 672 b 614 772 800 739 708 772 b 331 467 450 772 331 646 b 588 214 331 307 422 214 b 814 265 661 214 735 232 l 772 8 b 528 -25 704 -14 622 -25 b 60 456 242 -25 60 168 b 189 829 60 597 106 726 b 625 1017 288 950 439 1017 b 922 946 743 1017 840 988 m 326 -207 b 485 -243 388 -232 440 -243 b 551 -192 526 -243 551 -222 b 443 -146 551 -157 517 -146 l 415 -146 l 467 0 l 544 0 l 522 -62 b 681 -181 628 -64 681 -103 b 490 -337 681 -278 614 -337 b 290 -297 442 -337 375 -324 "},"É":{"ha":757,"x_min":0,"x_max":0,"o":"m 635 221 l 600 0 l 28 0 l 185 993 l 757 993 l 721 764 l 414 764 l 389 601 l 674 601 l 640 386 l 354 386 l 328 221 m 493 1329 l 703 1329 l 447 1090 l 344 1090 "},"Ê":{"ha":757,"x_min":0,"x_max":0,"o":"m 635 221 l 600 0 l 28 0 l 185 993 l 757 993 l 721 764 l 414 764 l 389 601 l 674 601 l 640 386 l 354 386 l 328 221 m 588 1090 l 500 1214 l 351 1090 l 247 1090 l 415 1329 l 601 1329 l 682 1090 "},"Ë":{"ha":757,"x_min":0,"x_max":0,"o":"m 635 221 l 600 0 l 28 0 l 185 993 l 757 993 l 721 764 l 414 764 l 389 601 l 674 601 l 640 386 l 354 386 l 328 221 m 279 1217 b 376 1313 279 1267 324 1313 b 471 1217 431 1313 471 1269 b 376 1119 471 1160 432 1119 b 279 1217 322 1119 279 1161 m 525 1217 b 622 1313 525 1267 569 1313 b 718 1217 676 1313 718 1269 b 622 1119 718 1160 678 1119 b 525 1217 568 1119 525 1161 "},"È":{"ha":757,"x_min":0,"x_max":0,"o":"m 635 221 l 600 0 l 28 0 l 185 993 l 757 993 l 721 764 l 414 764 l 389 601 l 674 601 l 640 386 l 354 386 l 328 221 m 479 1329 l 583 1090 l 488 1090 l 299 1329 "},"Ð":{"ha":1064,"x_min":0,"x_max":0,"o":"m 335 221 b 408 217 360 218 385 217 b 742 533 626 217 742 324 b 486 774 742 706 661 774 l 422 774 l 393 588 l 592 588 l 568 426 l 367 426 l 335 221 m 108 421 l -22 421 l 6 594 l 136 594 l 200 993 l 369 993 b 775 946 553 993 686 990 b 1001 528 921 872 1001 726 b 792 96 1001 338 933 196 b 272 0 658 3 493 0 l 43 0 "},"€":{"ha":849,"x_min":0,"x_max":0,"o":"m 825 710 b 622 788 763 761 694 788 b 392 622 511 788 438 733 l 747 622 l 700 538 l 376 538 b 367 447 369 507 367 478 l 653 447 l 607 364 l 364 364 b 567 183 374 247 447 183 b 761 243 631 183 690 206 l 714 6 b 531 -26 653 -15 594 -26 b 117 364 275 -26 126 115 l -15 364 l 19 447 l 117 447 b 126 538 118 479 122 510 l 13 538 l 47 622 l 142 622 b 618 1003 204 863 382 1003 b 871 933 706 1003 794 979 "},"Í":{"ha":492,"x_min":0,"x_max":0,"o":"m 189 993 l 460 993 l 303 0 l 32 0 m 358 1329 l 568 1329 l 313 1090 l 210 1090 "},"Î":{"ha":492,"x_min":0,"x_max":0,"o":"m 189 993 l 460 993 l 303 0 l 32 0 m 453 1090 l 365 1214 l 217 1090 l 113 1090 l 281 1329 l 467 1329 l 547 1090 "},"Ï":{"ha":492,"x_min":0,"x_max":0,"o":"m 189 993 l 460 993 l 303 0 l 32 0 m 144 1217 b 242 1313 144 1267 189 1313 b 336 1217 296 1313 336 1269 b 242 1119 336 1160 297 1119 b 144 1217 188 1119 144 1161 m 390 1217 b 488 1313 390 1267 435 1313 b 583 1217 542 1313 583 1269 b 488 1119 583 1160 543 1119 b 390 1217 433 1119 390 1161 "},"Ì":{"ha":492,"x_min":0,"x_max":0,"o":"m 189 993 l 460 993 l 303 0 l 32 0 m 344 1329 l 449 1090 l 353 1090 l 164 1329 "},"Ñ":{"ha":1135,"x_min":0,"x_max":0,"o":"m 185 993 l 488 993 l 697 503 b 754 340 713 465 738 414 l 754 365 b 767 506 754 410 760 457 l 843 993 l 1108 993 l 951 0 l 660 0 l 438 506 b 379 668 419 546 396 599 l 379 640 b 368 503 379 592 374 546 l 293 0 l 28 0 m 919 1321 b 761 1146 889 1203 842 1146 b 701 1156 742 1146 722 1149 l 658 1171 b 615 1178 644 1175 631 1178 b 547 1113 582 1178 557 1156 l 467 1113 b 626 1290 494 1231 547 1290 b 689 1279 644 1290 667 1286 l 732 1265 b 768 1258 749 1260 761 1258 b 839 1321 804 1258 825 1276 l 919 1321 "},"Ó":{"ha":1196,"x_min":0,"x_max":0,"o":"m 560 -26 b 211 90 417 -26 301 13 b 60 439 117 172 60 300 b 196 822 60 586 106 717 b 638 1015 301 946 458 1015 b 1138 551 939 1015 1138 824 b 1000 168 1138 404 1090 272 b 560 -26 892 42 740 -26 m 621 772 b 335 468 457 772 335 639 b 575 217 335 315 429 217 b 861 528 735 217 861 354 b 621 772 861 672 758 772 m 686 1329 l 896 1329 l 640 1090 l 538 1090 "},"Ô":{"ha":1196,"x_min":0,"x_max":0,"o":"m 560 -26 b 211 90 417 -26 301 13 b 60 439 117 172 60 300 b 196 822 60 586 106 717 b 638 1015 301 946 458 1015 b 1138 551 939 1015 1138 824 b 1000 168 1138 404 1090 272 b 560 -26 892 42 740 -26 m 621 772 b 335 468 457 772 335 639 b 575 217 335 315 429 217 b 861 528 735 217 861 354 b 621 772 861 672 758 772 m 781 1090 l 693 1214 l 544 1090 l 440 1090 l 608 1329 l 794 1329 l 875 1090 "},"Ö":{"ha":1196,"x_min":0,"x_max":0,"o":"m 560 -26 b 211 90 417 -26 301 13 b 60 439 117 172 60 300 b 196 822 60 586 106 717 b 638 1015 301 946 458 1015 b 1138 551 939 1015 1138 824 b 1000 168 1138 404 1090 272 b 560 -26 892 42 740 -26 m 621 772 b 335 468 457 772 335 639 b 575 217 335 315 429 217 b 861 528 735 217 861 354 b 621 772 861 672 758 772 m 472 1217 b 569 1313 472 1267 517 1313 b 664 1217 624 1313 664 1269 b 569 1119 664 1160 625 1119 b 472 1217 515 1119 472 1161 m 718 1217 b 815 1313 718 1267 763 1313 b 911 1217 869 1313 911 1269 b 815 1119 911 1160 871 1119 b 718 1217 761 1119 718 1161 "},"Ò":{"ha":1196,"x_min":0,"x_max":0,"o":"m 560 -26 b 211 90 417 -26 301 13 b 60 439 117 172 60 300 b 196 822 60 586 106 717 b 638 1015 301 946 458 1015 b 1138 551 939 1015 1138 824 b 1000 168 1138 404 1090 272 b 560 -26 892 42 740 -26 m 621 772 b 335 468 457 772 335 639 b 575 217 335 315 429 217 b 861 528 735 217 861 354 b 621 772 861 672 758 772 m 672 1329 l 776 1090 l 681 1090 l 492 1329 "},"Õ":{"ha":1196,"x_min":0,"x_max":0,"o":"m 560 -26 b 211 90 417 -26 301 13 b 60 439 117 172 60 300 b 196 822 60 586 106 717 b 638 1015 301 946 458 1015 b 1138 551 939 1015 1138 824 b 1000 168 1138 404 1090 272 b 560 -26 892 42 740 -26 m 621 772 b 335 468 457 772 335 639 b 575 217 335 315 429 217 b 861 528 735 217 861 354 b 621 772 861 672 758 772 m 918 1321 b 760 1146 888 1203 840 1146 b 700 1156 740 1146 721 1149 l 657 1171 b 614 1178 643 1175 629 1178 b 546 1113 581 1178 556 1156 l 465 1113 b 625 1290 493 1231 546 1290 b 688 1279 643 1290 665 1286 l 731 1265 b 767 1258 747 1260 760 1258 b 838 1321 803 1258 824 1276 l 918 1321 "},"Š":{"ha":797,"x_min":0,"x_max":0,"o":"m 117 342 b 353 214 196 257 268 214 b 463 303 422 214 463 251 b 324 429 463 361 411 383 b 119 683 193 497 119 558 b 475 1018 119 878 264 1018 b 778 903 585 1018 688 979 l 664 707 b 485 797 594 767 536 797 b 390 717 429 797 390 761 b 547 593 390 663 458 643 b 733 326 675 522 733 456 b 322 -25 733 118 582 -25 b -21 143 189 -25 72 32 l 117 342 m 414 1329 l 501 1207 l 650 1329 l 753 1329 l 585 1090 l 400 1090 l 318 1329 "},"Þ":{"ha":894,"x_min":0,"x_max":0,"o":"m 292 0 l 28 0 l 186 993 l 450 993 l 424 839 l 464 839 b 856 531 726 839 856 742 b 706 236 856 403 794 292 b 450 192 638 194 556 192 l 324 192 m 382 401 b 600 522 524 401 600 419 b 440 628 600 596 549 628 l 392 628 l 357 401 "},"Ú":{"ha":1038,"x_min":0,"x_max":0,"o":"m 439 993 l 360 494 b 343 349 350 436 343 389 b 479 214 343 264 393 214 b 699 632 635 214 654 350 l 756 993 l 1022 993 l 933 429 b 860 169 918 333 904 246 b 464 -29 786 42 649 -29 b 72 282 226 -29 72 94 b 104 569 72 340 83 436 l 172 993 m 631 1329 l 840 1329 l 585 1090 l 482 1090 "},"Û":{"ha":1038,"x_min":0,"x_max":0,"o":"m 439 993 l 360 494 b 343 349 350 436 343 389 b 479 214 343 264 393 214 b 699 632 635 214 654 350 l 756 993 l 1022 993 l 933 429 b 860 169 918 333 904 246 b 464 -29 786 42 649 -29 b 72 282 226 -29 72 94 b 104 569 72 340 83 436 l 172 993 m 725 1090 l 638 1214 l 489 1090 l 385 1090 l 553 1329 l 739 1329 l 819 1090 "},"Ü":{"ha":1038,"x_min":0,"x_max":0,"o":"m 439 993 l 360 494 b 343 349 350 436 343 389 b 479 214 343 264 393 214 b 699 632 635 214 654 350 l 756 993 l 1022 993 l 933 429 b 860 169 918 333 904 246 b 464 -29 786 42 649 -29 b 72 282 226 -29 72 94 b 104 569 72 340 83 436 l 172 993 m 417 1217 b 514 1313 417 1267 461 1313 b 608 1217 568 1313 608 1269 b 514 1119 608 1160 569 1119 b 417 1217 460 1119 417 1161 m 663 1217 b 760 1313 663 1267 707 1313 b 856 1217 814 1313 856 1269 b 760 1119 856 1160 815 1119 b 663 1217 706 1119 663 1161 "},"Ù":{"ha":1038,"x_min":0,"x_max":0,"o":"m 439 993 l 360 494 b 343 349 350 436 343 389 b 479 214 343 264 393 214 b 699 632 635 214 654 350 l 756 993 l 1022 993 l 933 429 b 860 169 918 333 904 246 b 464 -29 786 42 649 -29 b 72 282 226 -29 72 94 b 104 569 72 340 83 436 l 172 993 m 617 1329 l 721 1090 l 625 1090 l 436 1329 "},"Ý":{"ha":810,"x_min":0,"x_max":0,"o":"m 251 443 l -28 993 l 268 993 l 376 739 b 413 642 388 714 400 681 b 460 742 435 694 450 728 l 636 993 l 942 993 l 518 440 l 449 0 l 182 0 m 517 1329 l 726 1329 l 471 1090 l 368 1090 "},"Ÿ":{"ha":810,"x_min":0,"x_max":0,"o":"m 251 443 l -28 993 l 268 993 l 376 739 b 413 642 388 714 400 681 b 460 742 435 694 450 728 l 636 993 l 942 993 l 518 440 l 449 0 l 182 0 m 303 1217 b 400 1313 303 1267 347 1313 b 494 1217 454 1313 494 1269 b 400 1119 494 1160 456 1119 b 303 1217 346 1119 303 1161 m 549 1217 b 646 1313 549 1267 593 1313 b 742 1217 700 1313 742 1269 b 646 1119 742 1160 701 1119 b 549 1217 592 1119 549 1161 "},"Ž":{"ha":903,"x_min":0,"x_max":0,"o":"m 494 775 l 113 775 l 143 993 l 963 993 l 404 236 l 843 236 l 807 0 l -76 0 m 467 1329 l 554 1207 l 703 1329 l 806 1329 l 638 1090 l 453 1090 l 371 1329 "},"á":{"ha":926,"x_min":0,"x_max":0,"o":"m 542 92 b 301 -25 475 14 393 -25 b 32 294 147 -25 32 101 b 390 707 32 533 188 707 b 619 586 485 707 558 668 l 635 685 l 864 685 l 756 0 l 531 0 l 542 92 m 275 318 b 421 172 275 229 335 172 b 589 368 517 172 589 256 b 444 511 589 453 531 511 b 275 318 346 511 275 429 m 547 1021 l 757 1021 l 501 782 l 399 782 "},"â":{"ha":926,"x_min":0,"x_max":0,"o":"m 542 92 b 301 -25 475 14 393 -25 b 32 294 147 -25 32 101 b 390 707 32 533 188 707 b 619 586 485 707 558 668 l 635 685 l 864 685 l 756 0 l 531 0 l 542 92 m 275 318 b 421 172 275 229 335 172 b 589 368 517 172 589 256 b 444 511 589 453 531 511 b 275 318 346 511 275 429 m 642 782 l 554 906 l 406 782 l 301 782 l 469 1021 l 656 1021 l 736 782 "},"ä":{"ha":926,"x_min":0,"x_max":0,"o":"m 542 92 b 301 -25 475 14 393 -25 b 32 294 147 -25 32 101 b 390 707 32 533 188 707 b 619 586 485 707 558 668 l 635 685 l 864 685 l 756 0 l 531 0 l 542 92 m 275 318 b 421 172 275 229 335 172 b 589 368 517 172 589 256 b 444 511 589 453 531 511 b 275 318 346 511 275 429 m 333 908 b 431 1004 333 958 378 1004 b 525 908 485 1004 525 961 b 431 811 525 851 486 811 b 333 908 376 811 333 853 m 579 908 b 676 1004 579 958 624 1004 b 772 908 731 1004 772 961 b 676 811 772 851 732 811 b 579 908 622 811 579 853 "},"à":{"ha":926,"x_min":0,"x_max":0,"o":"m 542 92 b 301 -25 475 14 393 -25 b 32 294 147 -25 32 101 b 390 707 32 533 188 707 b 619 586 485 707 558 668 l 635 685 l 864 685 l 756 0 l 531 0 l 542 92 m 275 318 b 421 172 275 229 335 172 b 589 368 517 172 589 256 b 444 511 589 453 531 511 b 275 318 346 511 275 429 m 533 1021 l 638 782 l 542 782 l 353 1021 "},"å":{"ha":926,"x_min":0,"x_max":0,"o":"m 542 92 b 301 -25 475 14 393 -25 b 32 294 147 -25 32 101 b 390 707 32 533 188 707 b 619 586 485 707 558 668 l 635 685 l 864 685 l 756 0 l 531 0 l 542 92 m 275 318 b 421 172 275 229 335 172 b 589 368 517 172 589 256 b 444 511 589 453 531 511 b 275 318 346 511 275 429 m 331 922 b 508 1100 331 1022 408 1100 b 686 922 607 1100 686 1022 b 508 744 686 824 608 744 b 331 922 408 744 331 822 m 425 922 b 508 839 425 874 461 839 b 592 922 556 839 592 875 b 508 1006 592 968 554 1006 b 425 922 463 1006 425 968 "},"ã":{"ha":926,"x_min":0,"x_max":0,"o":"m 542 92 b 301 -25 475 14 393 -25 b 32 294 147 -25 32 101 b 390 707 32 533 188 707 b 619 586 485 707 558 668 l 635 685 l 864 685 l 756 0 l 531 0 l 542 92 m 275 318 b 421 172 275 229 335 172 b 589 368 517 172 589 256 b 444 511 589 453 531 511 b 275 318 346 511 275 429 m 779 1013 b 621 838 749 894 701 838 b 561 847 601 838 582 840 l 518 863 b 475 869 504 867 490 869 b 407 804 442 869 417 847 l 326 804 b 486 982 354 922 407 982 b 549 971 504 982 526 978 l 592 957 b 628 950 608 951 621 950 b 699 1013 664 950 685 968 l 779 1013 "},"¦":{"ha":694,"x_min":0,"x_max":0,"o":"m 429 971 l 429 457 l 267 457 l 267 971 m 429 276 l 429 -237 l 267 -237 l 267 276 "},"ç":{"ha":694,"x_min":0,"x_max":0,"o":"m 603 435 b 447 514 554 488 504 514 b 279 322 351 514 279 431 b 418 175 279 232 332 175 b 571 232 471 175 521 193 l 535 7 b 353 -26 471 -15 411 -26 b 28 313 158 -26 28 113 b 431 710 28 543 185 710 b 636 644 507 710 578 688 l 603 435 m 186 -207 b 344 -243 247 -232 300 -243 b 411 -192 386 -243 411 -222 b 303 -146 411 -157 376 -146 l 275 -146 l 326 0 l 404 0 l 382 -62 b 540 -181 488 -64 540 -103 b 350 -337 540 -278 474 -337 b 150 -297 301 -337 235 -324 "},"©":{"ha":1157,"x_min":0,"x_max":0,"o":"m 578 1007 b 939 858 717 1007 842 956 b 1085 500 1035 763 1085 638 b 940 144 1085 361 1035 238 b 578 -7 840 46 711 -7 b 221 143 444 -7 318 46 b 72 500 124 240 72 365 b 222 860 72 633 125 761 b 578 1007 317 956 439 1007 m 579 915 b 288 794 465 915 365 874 b 164 500 208 714 164 610 b 288 208 164 392 208 288 b 579 86 367 129 469 86 b 875 210 688 86 793 129 b 993 500 953 286 993 386 b 874 793 993 613 951 715 b 579 915 794 872 693 915 m 683 604 b 578 700 678 665 639 700 b 458 501 506 700 458 631 b 585 308 458 374 503 308 b 688 414 644 308 682 346 l 833 414 b 582 199 828 285 729 199 b 303 496 411 199 303 311 b 581 801 303 685 413 801 b 828 604 724 801 821 722 "},"°":{"ha":457,"x_min":0,"x_max":0,"o":"m 229 994 b 440 783 344 994 440 901 b 228 572 440 668 346 572 b 18 783 111 572 18 665 b 229 994 18 903 113 994 m 229 896 b 117 785 168 896 117 847 b 229 672 117 722 165 672 b 340 785 292 672 340 724 b 229 896 340 846 292 896 "},"÷":{"ha":1157,"x_min":0,"x_max":0,"o":"m 579 801 b 690 689 639 801 690 751 b 578 578 690 629 642 578 b 467 689 515 578 467 628 b 579 801 467 751 518 801 m 985 493 l 985 336 l 172 336 l 172 493 m 579 251 b 690 139 640 251 690 201 b 579 28 690 79 643 28 b 467 139 518 28 467 76 b 579 251 467 201 518 251 "},"é":{"ha":829,"x_min":0,"x_max":0,"o":"m 249 269 b 379 136 249 182 294 136 b 549 215 440 136 490 161 l 679 83 b 374 -28 600 8 497 -28 b 21 311 149 -28 21 99 b 417 707 21 546 183 707 b 768 353 629 707 768 565 b 763 285 768 335 765 313 l 249 285 m 542 424 b 415 544 538 499 489 544 b 265 424 350 544 293 501 l 542 424 m 461 1021 l 671 1021 l 415 782 l 313 782 "},"ê":{"ha":829,"x_min":0,"x_max":0,"o":"m 249 269 b 379 136 249 182 294 136 b 549 215 440 136 490 161 l 679 83 b 374 -28 600 8 497 -28 b 21 311 149 -28 21 99 b 417 707 21 546 183 707 b 768 353 629 707 768 565 b 763 285 768 335 765 313 l 249 285 m 542 424 b 415 544 538 499 489 544 b 265 424 350 544 293 501 l 542 424 m 556 782 l 468 906 l 319 782 l 215 782 l 383 1021 l 569 1021 l 650 782 "},"ë":{"ha":829,"x_min":0,"x_max":0,"o":"m 249 269 b 379 136 249 182 294 136 b 549 215 440 136 490 161 l 679 83 b 374 -28 600 8 497 -28 b 21 311 149 -28 21 99 b 417 707 21 546 183 707 b 768 353 629 707 768 565 b 763 285 768 335 765 313 l 249 285 m 542 424 b 415 544 538 499 489 544 b 265 424 350 544 293 501 l 542 424 m 247 908 b 344 1004 247 958 292 1004 b 439 908 399 1004 439 961 b 344 811 439 851 400 811 b 247 908 290 811 247 853 m 493 908 b 590 1004 493 958 538 1004 b 686 908 644 1004 686 961 b 590 811 686 851 646 811 b 493 908 536 811 493 853 "},"è":{"ha":829,"x_min":0,"x_max":0,"o":"m 249 269 b 379 136 249 182 294 136 b 549 215 440 136 490 161 l 679 83 b 374 -28 600 8 497 -28 b 21 311 149 -28 21 99 b 417 707 21 546 183 707 b 768 353 629 707 768 565 b 763 285 768 335 765 313 l 249 285 m 542 424 b 415 544 538 499 489 544 b 265 424 350 544 293 501 l 542 424 m 447 1021 l 551 782 l 456 782 l 267 1021 "},"ð":{"ha":851,"x_min":0,"x_max":0,"o":"m 582 594 b 508 771 568 654 546 713 l 315 726 l 292 821 l 443 856 b 351 951 408 893 378 925 l 499 1053 b 649 903 553 1008 604 961 l 835 946 l 861 851 l 710 817 b 804 457 772 701 804 583 b 375 -28 804 158 638 -28 b 19 301 161 -28 19 107 b 119 558 19 403 56 492 b 386 675 190 632 289 675 b 582 594 481 675 544 650 m 415 489 b 251 303 322 489 251 406 b 386 171 251 221 301 171 b 551 357 481 171 551 247 b 415 489 551 439 500 489 "},"í":{"ha":433,"x_min":0,"x_max":0,"o":"m 126 685 l 369 685 l 261 0 l 18 0 m 286 1021 l 496 1021 l 240 782 l 138 782 "},"î":{"ha":433,"x_min":0,"x_max":0,"o":"m 126 685 l 369 685 l 261 0 l 18 0 m 381 782 l 293 906 l 144 782 l 40 782 l 208 1021 l 394 1021 l 475 782 "},"ï":{"ha":433,"x_min":0,"x_max":0,"o":"m 126 685 l 369 685 l 261 0 l 18 0 m 72 908 b 169 1004 72 958 117 1004 b 264 908 224 1004 264 961 b 169 811 264 851 225 811 b 72 908 115 811 72 853 m 318 908 b 415 1004 318 958 363 1004 b 511 908 469 1004 511 961 b 415 811 511 851 471 811 b 318 908 361 811 318 853 "},"ì":{"ha":433,"x_min":0,"x_max":0,"o":"m 126 685 l 369 685 l 261 0 l 18 0 m 272 1021 l 376 782 l 281 782 l 92 1021 "},"¬":{"ha":1157,"x_min":0,"x_max":0,"o":"m 985 588 l 985 247 l 829 247 l 829 433 l 172 433 l 172 588 "},"−":{"ha":1157,"x_min":0,"x_max":0,"o":"m 985 494 l 985 335 l 172 335 l 172 494 "},"µ":{"ha":892,"x_min":0,"x_max":0,"o":"m 374 739 l 319 381 b 311 283 314 343 311 310 b 408 168 311 207 343 168 b 553 364 490 168 532 232 l 613 739 l 854 739 l 736 0 l 518 0 l 531 85 b 389 -11 494 18 453 -11 b 264 71 336 -11 292 17 l 208 -290 l -31 -290 l 131 739 "},"×":{"ha":1157,"x_min":0,"x_max":0,"o":"m 590 525 l 889 824 l 999 714 l 700 414 l 999 115 l 889 6 l 590 304 l 292 6 l 182 115 l 481 414 l 182 714 l 292 824 "},"ñ":{"ha":875,"x_min":0,"x_max":0,"o":"m 115 685 l 347 685 l 331 578 b 564 707 403 665 472 707 b 788 489 706 707 788 626 b 774 360 788 450 781 407 l 717 0 l 475 0 l 532 363 b 538 419 536 388 538 407 b 444 510 538 479 506 510 b 294 319 357 510 314 447 l 246 0 l 7 0 m 739 1013 b 581 838 708 894 661 838 b 521 847 561 838 542 840 l 478 863 b 435 869 464 867 450 869 b 367 804 401 869 376 847 l 286 804 b 446 982 314 922 367 982 b 508 971 464 982 486 978 l 551 957 b 588 950 568 951 581 950 b 658 1013 624 950 644 968 l 739 1013 "},"ó":{"ha":851,"x_min":0,"x_max":0,"o":"m 18 310 b 424 708 18 543 188 708 b 785 367 644 708 785 572 b 372 -28 785 142 619 -28 b 18 310 157 -28 18 107 m 419 511 b 250 307 325 511 250 422 b 382 169 250 222 303 169 b 554 374 483 169 554 256 b 419 511 554 460 501 511 m 472 1021 l 682 1021 l 426 782 l 324 782 "},"ô":{"ha":851,"x_min":0,"x_max":0,"o":"m 18 310 b 424 708 18 543 188 708 b 785 367 644 708 785 572 b 372 -28 785 142 619 -28 b 18 310 157 -28 18 107 m 419 511 b 250 307 325 511 250 422 b 382 169 250 222 303 169 b 554 374 483 169 554 256 b 419 511 554 460 501 511 m 567 782 l 479 906 l 331 782 l 226 782 l 394 1021 l 581 1021 l 661 782 "},"ö":{"ha":851,"x_min":0,"x_max":0,"o":"m 18 310 b 424 708 18 543 188 708 b 785 367 644 708 785 572 b 372 -28 785 142 619 -28 b 18 310 157 -28 18 107 m 419 511 b 250 307 325 511 250 422 b 382 169 250 222 303 169 b 554 374 483 169 554 256 b 419 511 554 460 501 511 m 258 908 b 356 1004 258 958 303 1004 b 450 908 410 1004 450 961 b 356 811 450 851 411 811 b 258 908 301 811 258 853 m 504 908 b 601 1004 504 958 549 1004 b 697 908 656 1004 697 961 b 601 811 697 851 657 811 b 504 908 547 811 504 853 "},"ò":{"ha":851,"x_min":0,"x_max":0,"o":"m 18 310 b 424 708 18 543 188 708 b 785 367 644 708 785 572 b 372 -28 785 142 619 -28 b 18 310 157 -28 18 107 m 419 511 b 250 307 325 511 250 422 b 382 169 250 222 303 169 b 554 374 483 169 554 256 b 419 511 554 460 501 511 m 458 1021 l 563 782 l 467 782 l 278 1021 "},"½":{"ha":1301,"x_min":0,"x_max":0,"o":"m 231 863 l 136 863 l 174 979 l 410 979 l 311 429 l 153 429 m 856 1003 l 997 1003 l 449 -26 l 303 -26 m 1050 118 b 1114 121 1088 119 1108 121 l 1247 121 l 1225 0 l 768 0 l 1029 265 b 1111 390 1081 318 1111 356 b 1044 447 1111 425 1085 447 b 963 360 994 447 964 415 l 815 360 b 1051 561 825 488 914 561 b 1267 394 1183 561 1267 492 b 1132 185 1267 318 1221 258 l 1050 118 "},"¼":{"ha":1301,"x_min":0,"x_max":0,"o":"m 231 863 l 136 863 l 174 979 l 410 979 l 311 429 l 153 429 m 856 1003 l 997 1003 l 449 -26 l 303 -26 m 1033 126 l 765 126 l 785 232 l 1068 550 l 1250 550 l 1193 232 l 1275 232 l 1257 126 l 1175 126 l 1153 0 l 1011 0 m 1089 404 b 1104 464 1092 422 1099 443 b 1057 401 1092 443 1075 421 l 907 232 l 1053 232 "},"¹":{"ha":560,"x_min":0,"x_max":0,"o":"m 242 854 l 143 854 l 182 981 l 429 981 l 326 390 l 160 390 "},"õ":{"ha":851,"x_min":0,"x_max":0,"o":"m 18 310 b 424 708 18 543 188 708 b 785 367 644 708 785 572 b 372 -28 785 142 619 -28 b 18 310 157 -28 18 107 m 419 511 b 250 307 325 511 250 422 b 382 169 250 222 303 169 b 554 374 483 169 554 256 b 419 511 554 460 501 511 m 704 1013 b 546 838 674 894 626 838 b 486 847 526 838 507 840 l 443 863 b 400 869 429 867 415 869 b 332 804 367 869 342 847 l 251 804 b 411 982 279 922 332 982 b 474 971 429 982 451 978 l 517 957 b 553 950 533 951 546 950 b 624 1013 589 950 610 968 l 704 1013 "},"±":{"ha":1157,"x_min":0,"x_max":0,"o":"m 660 842 l 660 625 l 985 625 l 985 468 l 660 468 l 660 251 l 499 251 l 499 468 l 172 468 l 172 625 l 499 625 l 499 842 m 985 144 l 985 -12 l 172 -12 l 172 144 "},"®":{"ha":1157,"x_min":0,"x_max":0,"o":"m 578 1007 b 943 854 718 1007 846 954 b 1085 500 1036 760 1085 635 b 935 140 1085 360 1032 233 b 578 -7 835 44 708 -7 b 218 147 442 -7 315 47 b 72 500 124 244 72 368 b 226 864 72 635 126 765 b 578 1007 321 957 442 1007 m 579 915 b 290 799 467 915 368 875 b 165 500 208 717 165 611 b 283 213 165 392 206 292 b 578 86 363 131 467 86 b 871 206 686 86 790 128 b 993 500 950 282 993 386 b 876 790 993 611 953 713 b 579 915 796 872 693 915 m 588 789 b 828 628 747 789 828 732 b 710 478 828 556 785 500 l 833 233 l 665 233 l 561 454 l 517 454 l 517 233 l 364 233 l 364 789 m 517 544 l 571 544 b 671 617 638 544 671 568 b 563 693 671 671 636 693 l 517 693 "},"š":{"ha":638,"x_min":0,"x_max":0,"o":"m 510 481 b 346 544 451 522 400 544 b 271 493 300 544 271 521 b 390 415 271 451 318 447 b 567 213 508 364 567 313 b 261 -26 567 71 450 -26 b -28 57 156 -26 61 1 l 53 221 b 257 143 132 172 194 143 b 336 200 307 143 336 168 b 190 299 336 247 279 260 b 44 478 90 343 44 392 b 338 707 44 601 157 707 b 581 635 425 707 508 682 m 292 1021 l 379 899 l 528 1021 l 631 1021 l 463 782 l 278 782 l 196 1021 "},"þ":{"ha":926,"x_min":0,"x_max":0,"o":"m 261 97 b 254 -11 261 49 258 13 l 210 -303 l -29 -303 l 185 1051 l 422 1051 l 364 682 b 340 590 361 667 354 636 b 567 710 404 671 478 710 b 850 389 736 710 850 585 b 492 -24 850 150 696 -24 b 261 97 397 -24 326 15 m 601 358 b 457 504 601 447 543 504 b 288 304 361 504 288 422 b 432 165 288 224 346 165 b 601 358 531 165 601 247 "},"¾":{"ha":1301,"x_min":0,"x_max":0,"o":"m 172 608 b 254 525 176 556 207 525 b 331 592 299 525 331 554 b 238 660 331 633 297 660 l 231 660 l 249 758 b 274 757 257 757 267 757 b 358 824 328 757 358 782 b 288 883 358 860 329 883 b 217 828 250 883 225 864 l 76 828 b 306 990 92 928 179 990 b 501 846 425 990 501 931 b 369 710 501 781 456 731 b 478 589 439 696 478 651 b 254 415 478 488 390 415 b 26 608 113 415 28 489 m 856 1003 l 997 1003 l 449 -26 l 303 -26 m 1033 126 l 765 126 l 785 232 l 1068 550 l 1250 550 l 1193 232 l 1275 232 l 1257 126 l 1175 126 l 1153 0 l 1011 0 m 1089 404 b 1104 464 1092 422 1099 443 b 1057 401 1092 443 1075 421 l 907 232 l 1053 232 "},"³":{"ha":560,"x_min":0,"x_max":0,"o":"m 181 583 b 267 493 185 525 217 493 b 346 564 314 493 346 524 b 250 638 346 610 311 638 l 242 638 l 260 743 b 288 742 269 742 279 742 b 375 814 343 742 375 768 b 300 876 375 851 344 876 b 226 817 263 876 236 856 l 81 817 b 319 992 96 925 188 992 b 525 836 444 992 525 928 b 388 692 525 767 476 713 b 500 563 460 675 500 629 b 267 375 500 453 408 375 b 28 583 118 375 28 454 "},"™":{"ha":1157,"x_min":0,"x_max":0,"o":"m 468 993 l 468 907 l 357 907 l 357 619 l 239 619 l 239 907 l 128 907 l 128 993 m 692 993 l 768 788 l 846 993 l 996 993 l 996 619 l 890 619 l 890 883 l 792 619 l 747 619 l 646 883 l 646 619 l 540 619 l 540 993 "},"²":{"ha":560,"x_min":0,"x_max":0,"o":"m 297 517 b 364 519 336 518 357 519 l 503 519 l 481 390 l 1 390 l 275 675 b 360 808 329 731 360 771 b 290 869 360 846 333 869 b 206 775 239 869 207 835 l 50 775 b 299 992 61 913 154 992 b 525 813 436 992 525 917 b 383 589 525 731 476 667 l 297 517 "},"ú":{"ha":849,"x_min":0,"x_max":0,"o":"m 343 685 l 299 401 b 281 258 286 319 281 272 b 372 158 281 193 313 158 b 517 414 481 158 490 247 l 560 685 l 800 685 l 751 375 b 638 67 731 246 717 143 b 363 -26 574 6 481 -26 b 38 228 157 -26 38 75 b 61 422 38 274 47 338 l 103 685 m 483 1021 l 693 1021 l 438 782 l 335 782 "},"û":{"ha":849,"x_min":0,"x_max":0,"o":"m 343 685 l 299 401 b 281 258 286 319 281 272 b 372 158 281 193 313 158 b 517 414 481 158 490 247 l 560 685 l 800 685 l 751 375 b 638 67 731 246 717 143 b 363 -26 574 6 481 -26 b 38 228 157 -26 38 75 b 61 422 38 274 47 338 l 103 685 m 578 782 l 490 906 l 342 782 l 238 782 l 406 1021 l 592 1021 l 672 782 "},"ü":{"ha":849,"x_min":0,"x_max":0,"o":"m 343 685 l 299 401 b 281 258 286 319 281 272 b 372 158 281 193 313 158 b 517 414 481 158 490 247 l 560 685 l 800 685 l 751 375 b 638 67 731 246 717 143 b 363 -26 574 6 481 -26 b 38 228 157 -26 38 75 b 61 422 38 274 47 338 l 103 685 m 269 908 b 367 1004 269 958 314 1004 b 461 908 421 1004 461 961 b 367 811 461 851 422 811 b 269 908 313 811 269 853 m 515 908 b 613 1004 515 958 560 1004 b 708 908 667 1004 708 961 b 613 811 708 851 668 811 b 515 908 558 811 515 853 "},"ù":{"ha":849,"x_min":0,"x_max":0,"o":"m 343 685 l 299 401 b 281 258 286 319 281 272 b 372 158 281 193 313 158 b 517 414 481 158 490 247 l 560 685 l 800 685 l 751 375 b 638 67 731 246 717 143 b 363 -26 574 6 481 -26 b 38 228 157 -26 38 75 b 61 422 38 274 47 338 l 103 685 m 469 1021 l 574 782 l 478 782 l 289 1021 "},"ý":{"ha":729,"x_min":0,"x_max":0,"o":"m -17 685 l 233 685 l 293 389 b 311 269 299 361 310 322 b 360 392 322 308 339 349 l 501 685 l 761 685 l 229 -303 l -24 -303 l 178 35 m 435 1021 l 644 1021 l 389 782 l 286 782 "},"ÿ":{"ha":729,"x_min":0,"x_max":0,"o":"m -17 685 l 233 685 l 293 389 b 311 269 299 361 310 322 b 360 392 322 308 339 349 l 501 685 l 761 685 l 229 -303 l -24 -303 l 178 35 m 221 908 b 318 1004 221 958 265 1004 b 413 908 372 1004 413 961 b 318 811 413 851 374 811 b 221 908 264 811 221 853 m 467 908 b 564 1004 467 958 511 1004 b 660 908 618 1004 660 961 b 564 811 660 851 619 811 b 467 908 510 811 467 853 "},"ž":{"ha":744,"x_min":0,"x_max":0,"o":"m 340 514 l 58 514 l 85 685 l 746 685 l 350 194 l 664 194 l 633 0 l -72 0 m 344 1021 l 432 899 l 581 1021 l 683 1021 l 515 782 l 331 782 l 249 1021 "}}}
